<svg xmlns="http://www.w3.org/2000/svg" width="123.91" height="67" viewBox="0 0 123.91 67">
  <defs>
    <style>
      .cls-1 {
        fill: #fff;
        fill-rule: evenodd;
      }
    </style>
  </defs>
  <path id="si-vola-logo-white" class="cls-1" d="M3199.9,56.513l-6.62-28.784a4.661,4.661,0,0,0-4.54-3.615,3.255,3.255,0,0,0-3.11,2.274l-5.93,18.783a1.6,1.6,0,0,0,1.53,2.094,1.624,1.624,0,0,0,1.52-1.057l1-2.748h6.13l3.12,12.63a4.582,4.582,0,0,0,4.46,3.492A2.505,2.505,0,0,0,3199.9,56.513Zm-14.85-16.606,2.35-6.454,1.5,6.047Zm-79.81,1.256c-0.37-1.59-.67-3.859-2.65-4.034a2.3,2.3,0,0,0-2.4,1.633l-0.07.426a56.656,56.656,0,0,0,.54,8.918,35.225,35.225,0,0,0,1.16,7.3c0.46,1.429,1.41,3.694,3.09,3.968,1.73,0.281,2.76-1.622,3.02-3.085,0.43-2.382-.4-5.046-0.92-7.361C3106.43,46.338,3105.85,43.747,3105.24,41.162Zm-14.81,3.788a17.79,17.79,0,0,1-4.45-3.99,7.011,7.011,0,0,1-1.38-5.659,6.993,6.993,0,0,1,2.72-3.761,5.371,5.371,0,0,1,3.01-1.129,2.019,2.019,0,0,0,1.87-2.088,2.041,2.041,0,0,0-1.26-1.783,11.128,11.128,0,0,0-11.75,2.2,11.055,11.055,0,0,0-1.86,12.911,20.065,20.065,0,0,0,5.28,5.555,28.5,28.5,0,0,1,5.6,5.262,8.411,8.411,0,0,1,1.57,7.261,7.579,7.579,0,0,1-4.95,4.627,12.209,12.209,0,0,1-5.31.389,2.133,2.133,0,0,0-1.48,3.867,13.22,13.22,0,0,0,17.15-20A31.494,31.494,0,0,0,3090.43,44.95Zm13.97-12.275a2.785,2.785,0,1,0-2.78,2.781A2.784,2.784,0,0,0,3104.4,32.676Zm79.3,16.988-9.63,1.184L3173.75,24.6a2.135,2.135,0,0,0-2.13-2.1,2,2,0,0,0-1.99,1.74L3165.52,55.3a3.971,3.971,0,0,0,5.53,4.159l13.7-5.99A2,2,0,0,0,3183.7,49.664Zm-29.63-17.85c-7.05,0-14.47,6.378-14.47,13.965a18.633,18.633,0,0,0,.62,4.938,7.479,7.479,0,0,0,7.23,5.435h0.94a3.06,3.06,0,0,0,3.02-2.277c0.42-1.764-.96-3.084-1.76-3.677a10.35,10.35,0,0,1-1.5-1.387,6.107,6.107,0,0,1-1.59-3.623c0-6.321,4.53-7.355,4.53-7.355s6.23-1.5,6.23,4c0,4.238-2.67,7.5-3.89,8.779a2.168,2.168,0,0,0,1.58,3.666,4.772,4.772,0,0,0,2.61-.764,13.06,13.06,0,0,0,5.76-10.753C3163.38,38.037,3161.13,31.814,3154.07,31.814Zm-40.2,32.107a4.214,4.214,0,0,1,1.62-.688c1.11-.214,1.37-0.256,1.47-0.27a33.38,33.38,0,0,0,9.75-3.027,4.867,4.867,0,0,1,2.2-.575h0.04a3.713,3.713,0,0,1,.61.053l6.65-26.329a3.294,3.294,0,0,0-6.38-1.64l-6.53,24.889a0.662,0.662,0,0,1-.63.493h-0.01a0.656,0.656,0,0,1-.63-0.475l-7.24-24.769a3.168,3.168,0,0,0-3.84-2.165,3.156,3.156,0,0,0-2.21,3.97c1.27,4.16,3.08,10.183,4.45,15.244C3114.72,54.248,3114.31,60.426,3113.87,63.92Zm24.85-7.1c0,0.167.01,0.335,0,.505a29.338,29.338,0,0,1-1.07,6.14,41.856,41.856,0,0,1-2.08,5.933,5.064,5.064,0,0,1-2.1,2.307,3.987,3.987,0,0,0,2.5,1.868c1.15,0.2,2.32-.368,3.48-1.677,3.37-3.8,4.84-9.1,3.43-12.349A4.62,4.62,0,0,0,3138.72,56.818Zm-6.24-3.566-1.69,6.673a2.643,2.643,0,0,1,.42.409,4.49,4.49,0,0,1,.5,3.505,10.489,10.489,0,0,1-3.43,5.409,2.368,2.368,0,0,0,1.74,1.731,3.79,3.79,0,0,0,4.34-2.123,38.224,38.224,0,0,0,2.01-5.739,27.372,27.372,0,0,0,1.03-5.853,3.817,3.817,0,0,0-3.22-3.967A7.081,7.081,0,0,0,3132.48,53.252Zm3.93,21.676a3.9,3.9,0,0,1-.66-0.056,5.329,5.329,0,0,1-3.52-2.652,5.083,5.083,0,0,1-1.32.182,5.028,5.028,0,0,1-1.19-.14,3.686,3.686,0,0,1-2.56-2.209,11.711,11.711,0,0,1-3.69,1.483,12.565,12.565,0,0,1,5.32,10.22,0.66,0.66,0,0,1-1.32,0,11.318,11.318,0,0,0-5.03-9.338,10.467,10.467,0,0,1-1.29,5.442,0.662,0.662,0,0,1-1.14-.673,8.9,8.9,0,0,0,.94-5.9,0.537,0.537,0,0,1-.01-0.179V71.072a0.645,0.645,0,0,1,.06-0.232h0v0c0.02-.04.05-0.078,0.07-0.114s0.05-.051.08-0.075a0.04,0.04,0,0,1,.02-0.02,0.57,0.57,0,0,1,.19-0.109c0.01-.005.03-0.01,0.04-0.015a0.642,0.642,0,0,1,.19-0.033,9.443,9.443,0,0,0,8.85-6.969,3.206,3.206,0,0,0-.27-2.351,1.508,1.508,0,0,0-1.25-.471,3.611,3.611,0,0,0-1.61.429,34.672,34.672,0,0,1-10.16,3.159c-0.1.015-.41,0.07-1.41,0.261a2.982,2.982,0,0,0-2.33,2.222l-1.53,6.425a15.017,15.017,0,0,0,.21,8c1.77,5.606,6.37,8.331,14.06,8.331,14.84,0,16.29-10.275,16.43-19.732a17.906,17.906,0,0,1-2.14,3A5.412,5.412,0,0,1,3136.41,74.928Z" transform="translate(-3076.06 -22.5)"/>
</svg>
